<svg width="40" height="40" viewBox="0 0 40 40" fill="none" xmlns="http://www.w3.org/2000/svg">
<rect width="40" height="40" rx="12" fill="white" fill-opacity="0.08"/>
<rect x="4" y="4" width="32" height="32" rx="8" fill="white" fill-opacity="0.36"/>
<path d="M20 12.5C20.9946 12.5 21.9484 12.8951 22.6517 13.5983C23.3549 14.3016 23.75 15.2554 23.75 16.25C23.75 17.2446 23.3549 18.1984 22.6517 18.9017C21.9484 19.6049 20.9946 20 20 20C19.0054 20 18.0516 19.6049 17.3483 18.9017C16.6451 18.1984 16.25 17.2446 16.25 16.25C16.25 15.2554 16.6451 14.3016 17.3483 13.5983C18.0516 12.8951 19.0054 12.5 20 12.5ZM20 20.8333C25 20.8333 27.5 23.5531 27.5 25.625V27.1C27.5 27.3209 27.3209 27.5 27.1 27.5H12.9C12.6791 27.5 12.5 27.3209 12.5 27.1V25.625C12.5 23.5531 15 20.8333 20 20.8333Z" fill="white"/>
</svg>
