<svg width="124" height="24" viewBox="0 0 124 24" fill="none" xmlns="http://www.w3.org/2000/svg">
<path fill-rule="evenodd" clip-rule="evenodd" d="M3 11.8719C3 7.53154 6.53154 4 10.8719 4C15.2123 4 18.7439 7.53154 18.7439 11.8719C18.7434 13.6189 18.1584 15.3156 17.0819 16.6915L20.7118 20.3215C21.0961 20.7057 21.0961 21.3286 20.7118 21.7128C20.3276 22.097 19.7047 22.097 19.3205 21.7128L15.6905 18.0829C14.3147 19.1588 12.6185 19.7435 10.8719 19.7439C6.53154 19.7439 3 16.2123 3 11.8719ZM17.0393 10.1764C17.1289 10.5022 16.9032 10.8203 16.5703 10.8783C16.2374 10.9364 15.924 10.712 15.8271 10.3883C15.6211 9.70019 15.2732 9.0603 14.8036 8.51095C14.201 7.80603 13.4199 7.27612 12.5421 6.9767C11.6644 6.67728 10.7223 6.61936 9.81449 6.80902C9.10702 6.95683 8.44066 7.25075 7.85705 7.66948C7.58249 7.86647 7.19729 7.85254 6.96927 7.60315C6.74125 7.35375 6.75699 6.96407 7.02702 6.76091C7.77602 6.19741 8.64187 5.80386 9.56424 5.61116C10.6868 5.37663 11.8518 5.44825 12.9372 5.81851C14.0226 6.18877 14.9885 6.84406 15.7337 7.71575C16.346 8.43197 16.7909 9.27263 17.0393 10.1764Z" fill="white"/>
<path d="M36.774 11.386H40.652V16.566C40.1667 16.7433 39.6347 16.8833 39.056 16.986C38.4773 17.0887 37.8473 17.14 37.166 17.14C36.2513 17.14 35.458 16.944 34.786 16.552C34.1233 16.16 33.61 15.5813 33.246 14.816C32.8913 14.0507 32.714 13.108 32.714 11.988C32.714 10.9427 32.9007 10.0373 33.274 9.272C33.6567 8.50667 34.212 7.914 34.94 7.494C35.6773 7.074 36.578 6.864 37.642 6.864C38.1833 6.864 38.706 6.92 39.21 7.032C39.714 7.144 40.162 7.29333 40.554 7.48L39.826 9.174C39.5087 9.01533 39.168 8.88467 38.804 8.782C38.44 8.67933 38.0527 8.628 37.642 8.628C37.0727 8.628 36.592 8.768 36.2 9.048C35.8173 9.328 35.528 9.72467 35.332 10.238C35.1453 10.742 35.052 11.3393 35.052 12.03C35.052 12.6833 35.136 13.262 35.304 13.766C35.472 14.27 35.724 14.6667 36.06 14.956C36.396 15.236 36.8207 15.376 37.334 15.376C37.4833 15.376 37.628 15.3713 37.768 15.362C37.908 15.3433 38.0387 15.3247 38.16 15.306C38.2907 15.278 38.4027 15.2547 38.496 15.236V13.15H36.774V11.386ZM44.8307 9.356V17H42.5907V9.356H44.8307ZM43.7247 6.36C44.0513 6.36 44.3313 6.43467 44.5647 6.584C44.798 6.724 44.9147 6.99 44.9147 7.382C44.9147 7.76467 44.798 8.03067 44.5647 8.18C44.3313 8.32933 44.0513 8.404 43.7247 8.404C43.3887 8.404 43.104 8.32933 42.8707 8.18C42.6373 8.03067 42.5207 7.76467 42.5207 7.382C42.5207 6.99 42.6373 6.724 42.8707 6.584C43.104 6.43467 43.3887 6.36 43.7247 6.36ZM50.0233 15.474C50.2473 15.474 50.4526 15.4507 50.6393 15.404C50.8353 15.3573 51.0359 15.3013 51.2413 15.236V16.79C51.0079 16.8833 50.7326 16.9627 50.4153 17.028C50.1073 17.1027 49.7433 17.14 49.3233 17.14C48.8753 17.14 48.4739 17.0653 48.1193 16.916C47.7739 16.7667 47.5033 16.51 47.3073 16.146C47.1113 15.7727 47.0133 15.2593 47.0133 14.606V10.924H46.1033V10.042L47.1953 9.342L47.8113 7.732H49.2533V9.356H51.1573V10.924H49.2533V14.606C49.2533 14.8953 49.3233 15.1147 49.4633 15.264C49.6033 15.404 49.7899 15.474 50.0233 15.474ZM60.6482 17H58.3662V12.688H55.0342V17H52.7662V7.004H55.0342V10.924H58.3662V7.004H60.6482V17ZM69.534 9.356V17H67.84L67.546 16.02H67.42C67.2707 16.2813 67.0793 16.496 66.846 16.664C66.622 16.8227 66.37 16.9393 66.09 17.014C65.81 17.098 65.5207 17.14 65.222 17.14C64.7273 17.14 64.2887 17.042 63.906 16.846C63.5233 16.65 63.22 16.3467 62.996 15.936C62.7813 15.5253 62.674 14.9933 62.674 14.34V9.356H64.914V13.822C64.914 14.3633 64.9933 14.774 65.152 15.054C65.3107 15.334 65.5673 15.474 65.922 15.474C66.286 15.474 66.566 15.376 66.762 15.18C66.958 14.984 67.0933 14.6993 67.168 14.326C67.252 13.9527 67.294 13.4953 67.294 12.954V9.356H69.534ZM73.6783 8.838C73.6783 9.12733 73.669 9.412 73.6503 9.692C73.6317 9.972 73.613 10.1913 73.5943 10.35H73.6783C73.865 10.0327 74.1123 9.76667 74.4203 9.552C74.7377 9.328 75.153 9.216 75.6663 9.216C76.441 9.216 77.0757 9.552 77.5703 10.224C78.065 10.8867 78.3123 11.8667 78.3123 13.164C78.3123 14.032 78.1957 14.7647 77.9623 15.362C77.7383 15.95 77.421 16.3933 77.0103 16.692C76.609 16.9907 76.1377 17.14 75.5963 17.14C75.083 17.14 74.6817 17.042 74.3923 16.846C74.103 16.6407 73.865 16.412 73.6783 16.16H73.5243L73.1743 17H71.4383V6.36H73.6783V8.838ZM74.8823 10.882C74.6023 10.882 74.3737 10.9567 74.1963 11.106C74.019 11.2553 73.8883 11.484 73.8043 11.792C73.7203 12.0907 73.6783 12.4687 73.6783 12.926V13.15C73.6783 13.8873 73.767 14.4567 73.9443 14.858C74.1217 15.25 74.4437 15.446 74.9103 15.446C75.265 15.446 75.5403 15.25 75.7363 14.858C75.9323 14.4567 76.0303 13.8827 76.0303 13.136C76.0303 12.3893 75.9323 11.8293 75.7363 11.456C75.5403 11.0733 75.2557 10.882 74.8823 10.882ZM85.8109 14.228C85.8109 14.816 85.6802 15.3293 85.4189 15.768C85.1575 16.2067 84.7609 16.5473 84.2289 16.79C83.7062 17.0233 83.0435 17.14 82.2409 17.14C81.8675 17.14 81.5222 17.1167 81.2049 17.07C80.8875 17.0233 80.5889 16.958 80.3089 16.874C80.0289 16.7807 79.7489 16.6687 79.4689 16.538V14.564C79.9449 14.7693 80.4302 14.9607 80.9249 15.138C81.4289 15.306 81.9049 15.39 82.3529 15.39C82.6422 15.39 82.8755 15.3433 83.0529 15.25C83.2302 15.1567 83.3609 15.0307 83.4449 14.872C83.5289 14.7133 83.5709 14.5313 83.5709 14.326C83.5709 14.074 83.5009 13.8593 83.3609 13.682C83.2302 13.5047 83.0342 13.3413 82.7729 13.192C82.5115 13.0333 82.1895 12.8747 81.8069 12.716C81.5269 12.5947 81.2515 12.4547 80.9809 12.296C80.7102 12.1373 80.4675 11.946 80.2529 11.722C80.0382 11.4887 79.8655 11.2087 79.7349 10.882C79.6135 10.5553 79.5529 10.1633 79.5529 9.706C79.5529 9.10867 79.6929 8.6 79.9729 8.18C80.2529 7.75067 80.6449 7.424 81.1489 7.2C81.6529 6.976 82.2409 6.864 82.9129 6.864C83.4635 6.864 83.9722 6.92467 84.4389 7.046C84.9149 7.16733 85.3675 7.34 85.7969 7.564L85.0829 9.216C84.6722 9.02933 84.2802 8.88467 83.9069 8.782C83.5429 8.67933 83.1882 8.628 82.8429 8.628C82.6095 8.628 82.4135 8.67 82.2549 8.754C82.0962 8.838 81.9749 8.95467 81.8909 9.104C81.8162 9.25333 81.7789 9.43067 81.7789 9.636C81.7789 9.86933 81.8395 10.07 81.9609 10.238C82.0915 10.3967 82.2922 10.5553 82.5629 10.714C82.8335 10.8633 83.1789 11.0453 83.5989 11.26C84.0655 11.4933 84.4622 11.7407 84.7889 12.002C85.1249 12.254 85.3769 12.5573 85.5449 12.912C85.7222 13.2667 85.8109 13.7053 85.8109 14.228ZM90.365 9.216C91.0463 9.216 91.6343 9.35133 92.129 9.622C92.6237 9.89267 93.0063 10.2847 93.277 10.798C93.5477 11.3113 93.683 11.9413 93.683 12.688V13.696H89.133C89.1517 14.284 89.301 14.746 89.581 15.082C89.8703 15.418 90.281 15.586 90.813 15.586C91.2797 15.586 91.6997 15.5393 92.073 15.446C92.4557 15.3433 92.8477 15.1893 93.249 14.984V16.594C92.9037 16.7807 92.5257 16.916 92.115 17C91.7137 17.0933 91.2143 17.14 90.617 17.14C89.889 17.14 89.2403 17 88.671 16.72C88.111 16.4307 87.6677 15.9967 87.341 15.418C87.0237 14.8393 86.865 14.1113 86.865 13.234C86.865 12.338 87.0097 11.596 87.299 11.008C87.5977 10.4107 88.0083 9.96267 88.531 9.664C89.063 9.36533 89.6743 9.216 90.365 9.216ZM90.407 10.7C90.071 10.7 89.791 10.8307 89.567 11.092C89.343 11.3533 89.2123 11.7593 89.175 12.31H91.625C91.625 12.002 91.5783 11.7267 91.485 11.484C91.3917 11.2413 91.2563 11.05 91.079 10.91C90.9017 10.77 90.6777 10.7 90.407 10.7ZM98.448 9.202C99.3907 9.202 100.119 9.426 100.632 9.874C101.155 10.3127 101.416 10.9893 101.416 11.904V17H99.862L99.428 15.964H99.372C99.1667 16.2347 98.9567 16.4587 98.742 16.636C98.5274 16.8133 98.28 16.9393 98 17.014C97.72 17.098 97.3794 17.14 96.978 17.14C96.558 17.14 96.18 17.056 95.844 16.888C95.5174 16.7107 95.256 16.4447 95.06 16.09C94.864 15.726 94.766 15.2687 94.766 14.718C94.766 13.906 95.032 13.3087 95.564 12.926C96.1054 12.534 96.8987 12.3193 97.944 12.282L99.176 12.24V11.904C99.176 11.5027 99.0874 11.2087 98.91 11.022C98.7327 10.8353 98.49 10.742 98.182 10.742C97.8647 10.742 97.5334 10.798 97.188 10.91C96.8427 11.0127 96.4974 11.1433 96.152 11.302L95.466 9.888C95.8767 9.67333 96.3294 9.50533 96.824 9.384C97.328 9.26267 97.8694 9.202 98.448 9.202ZM98.532 13.486C97.9814 13.5047 97.594 13.626 97.37 13.85C97.1554 14.074 97.048 14.368 97.048 14.732C97.048 15.0493 97.1227 15.278 97.272 15.418C97.4307 15.5487 97.636 15.614 97.888 15.614C98.2427 15.614 98.546 15.4833 98.798 15.222C99.0594 14.9513 99.19 14.5733 99.19 14.088V13.458L98.532 13.486ZM107.48 9.216C107.601 9.216 107.732 9.22067 107.872 9.23C108.012 9.23933 108.119 9.25333 108.194 9.272L108.012 11.232C107.937 11.2133 107.839 11.1993 107.718 11.19C107.597 11.1713 107.457 11.162 107.298 11.162C107.093 11.162 106.883 11.1993 106.668 11.274C106.463 11.3393 106.271 11.4467 106.094 11.596C105.926 11.7453 105.786 11.946 105.674 12.198C105.571 12.4407 105.52 12.744 105.52 13.108V17H103.28V9.356H104.96L105.296 10.644H105.408C105.548 10.3827 105.721 10.1447 105.926 9.93C106.131 9.71533 106.365 9.54267 106.626 9.412C106.897 9.28133 107.181 9.216 107.48 9.216ZM112.213 17.14C111.485 17.14 110.859 17.0047 110.337 16.734C109.814 16.454 109.413 16.0247 109.133 15.446C108.853 14.8673 108.713 14.1253 108.713 13.22C108.713 12.2867 108.867 11.526 109.175 10.938C109.492 10.35 109.926 9.916 110.477 9.636C111.037 9.356 111.676 9.216 112.395 9.216C112.861 9.216 113.295 9.26733 113.697 9.37C114.098 9.47267 114.434 9.594 114.705 9.734L114.047 11.302C113.767 11.1807 113.51 11.0827 113.277 11.008C113.053 10.9333 112.805 10.896 112.535 10.896C112.208 10.896 111.928 10.9847 111.695 11.162C111.471 11.33 111.298 11.5867 111.177 11.932C111.055 12.268 110.995 12.6927 110.995 13.206C110.995 13.71 111.055 14.13 111.177 14.466C111.307 14.7927 111.485 15.04 111.709 15.208C111.942 15.3667 112.217 15.446 112.535 15.446C112.889 15.446 113.225 15.39 113.543 15.278C113.869 15.1567 114.177 14.9933 114.467 14.788V16.566C114.159 16.7713 113.827 16.916 113.473 17C113.127 17.0933 112.707 17.14 112.213 17.14ZM118.262 8.53C118.262 8.90333 118.248 9.26267 118.22 9.608C118.202 9.95333 118.183 10.196 118.164 10.336H118.276C118.435 10.0747 118.612 9.86467 118.808 9.706C119.014 9.538 119.242 9.41667 119.494 9.342C119.746 9.258 120.017 9.216 120.306 9.216C120.81 9.216 121.254 9.314 121.636 9.51C122.028 9.706 122.336 10.0093 122.56 10.42C122.784 10.8307 122.896 11.3627 122.896 12.016V17H120.642V12.534C120.642 11.9833 120.558 11.5727 120.39 11.302C120.232 11.022 119.98 10.882 119.634 10.882C119.289 10.882 119.014 10.98 118.808 11.176C118.603 11.372 118.458 11.6567 118.374 12.03C118.3 12.4033 118.262 12.8607 118.262 13.402V17H116.022V6.36H118.262V8.53Z" fill="white"/>
</svg>
